Coordinates
version=1
nRows=9
nColumns=63
inDegrees=yes

Units are S.I. units (second, meters, Newtons, ...)
If the header above contains a line with 'inDegrees', this indicates whether rotational values are in degrees (yes) or radians (no).

endheader
time	pelvis_tilt	pelvis_list	pelvis_rotation	pelvis_tx	pelvis_ty	pelvis_tz	hip_flexion_r	hip_adduction_r	hip_rotation_r	knee_angle_r	knee_angle_r_beta	ankle_angle_r	subtalar_angle_r	mtp_angle_r	hip_flexion_l	hip_adduction_l	hip_rotation_l	knee_angle_l	knee_angle_l_beta	ankle_angle_l	subtalar_angle_l	mtp_angle_l	L5_S1_Flex_Ext	L5_S1_Lat_Bending	L5_S1_axial_rotation	L4_L5_Flex_Ext	L4_L5_Lat_Bending	L4_L5_axial_rotation	L3_L4_Flex_Ext	L3_L4_Lat_Bending	L3_L4_axial_rotation	L2_L3_Flex_Ext	L2_L3_Lat_Bending	L2_L3_axial_rotation	L1_L2_Flex_Ext	L1_L2_Lat_Bending	L1_L2_axial_rotation	L1_T12_Flex_Ext	L1_T12_Lat_Bending	L1_T12_axial_rotation	Abs_r3	Abs_r2	Abs_r1	Abs_t1	Abs_t2	neck_flexion	neck_bending	neck_rotation	arm_flex_r	arm_add_r	arm_rot_r	elbow_flex_r	pro_sup_r	wrist_flex_r	wrist_dev_r	arm_flex_l	arm_add_l	arm_rot_l	elbow_flex_l	pro_sup_l	wrist_flex_l	wrist_dev_l
      5.40000000	     -0.85013969	     -0.47822385	     96.61851494	      0.26196321	      0.98376158	      0.29725876	     -3.26382400	     -1.56104527	    -13.86382293	      3.50261378	      0.06113214	     18.51870047	     14.98053315	      0.00000000	     -4.00096056	      1.58053286	      3.14109043	      0.80041242	      0.01396983	      8.89281422	    -10.77717415	      0.00000000	     -0.13725424	     -0.21142279	      0.45710278	     -0.25489484	     -0.28119231	      0.48567171	     -0.22549498	     -0.51405336	      0.48567171	     -0.15686787	     -0.51405336	      0.39996494	     -0.12745428	     -0.43113335	      0.37139601	     -0.07842707	     -0.32749390	      0.34282709	     -0.98039328	     -2.39165685	      2.54226855	      0.00000000	      0.00000000	     -1.15748103	      5.50325582	      6.11125495	     29.43352150	     -3.17441524	     45.81485802	    144.60774995	     89.09380387	    -20.76312219	      5.96593853	     27.97686796	      2.39333999	     24.95575162	    148.84594947	     87.34222398	    -19.31205499	     21.02792038
      5.41666667	     -0.99111668	     -0.62153863	     96.62194850	      0.26222967	      0.98351533	      0.29704136	     -3.21301278	     -1.68862668	    -14.07444756	      3.39233900	      0.05920748	     18.51493126	     15.19050773	      0.00000000	     -3.86497525	      1.75865858	      3.64016722	      0.78341764	      0.01367322	      8.52562110	    -11.81328369	      0.00000000	     -0.13153348	     -0.23241423	      0.50816463	     -0.24427083	     -0.30911092	      0.53992492	     -0.21609636	     -0.56509195	      0.53992492	     -0.15032961	     -0.56509195	      0.44464405	     -0.12214199	     -0.47393909	      0.41288376	     -0.07515823	     -0.36000963	      0.38112347	     -0.93953050	     -2.62911620	      2.82625921	      0.00000000	      0.00000000	     -0.89028278	      5.70118494	      6.25794544	     28.88202469	     -3.22599592	     46.10722804	    145.17417657	     89.12956892	    -19.64694724	      6.15218601	     28.08803759	      2.39893180	     25.32701523	    148.78832539	     87.09530152	    -19.35664546	     21.44551356
      5.43333333	     -1.03998597	     -0.76041472	     96.67028875	      0.26224992	      0.98319662	      0.29681248	     -3.13016671	     -1.72948693	    -14.12883104	      3.34309099	      0.05834795	     18.48427205	     15.08779656	      0.00000000	     -3.71735042	      1.83535256	      3.58354983	      0.76751763	      0.01339571	      8.53152465	    -11.84084936	      0.00000000	     -0.11876311	     -0.23914673	      0.52105648	     -0.22055497	     -0.31806515	      0.55362251	     -0.19511591	     -0.58146136	      0.55362251	     -0.13573436	     -0.58146136	      0.45592442	     -0.11028342	     -0.48766801	      0.42335839	     -0.06786124	     -0.37043829	      0.39079236	     -0.84831302	     -2.70527565	      2.89795983	      0.00000000	      0.00000000	     -0.70631633	      5.77230906	      6.66573458	     28.51334712	     -3.34096244	     46.49702512	    145.52097986	     89.16188165	    -18.97073965	      5.73553048	     28.15408728	      2.33153736	     25.75945549	    148.81811279	     86.96795216	    -19.77464456	     21.88457840
      5.45000000	     -1.02885408	     -0.86028033	     96.69589129	      0.26216904	      0.98296944	      0.29668065	     -3.01858641	     -1.72859670	    -14.23346083	      3.39483149	      0.05925099	     18.46250559	     15.04485563	      0.00000000	     -3.58536814	      1.84013339	      3.01965079	      0.76731740	      0.01339222	      8.82615444	    -11.05407531	      0.00000000	     -0.10759150	     -0.23608094	      0.50236311	     -0.19980817	     -0.31398765	      0.53376080	     -0.17676207	     -0.57400720	      0.53376080	     -0.12296632	     -0.57400720	      0.43956772	     -0.09990946	     -0.48141625	      0.40817003	     -0.06147778	     -0.36568938	      0.37677233	     -0.76851530	     -2.67059482	      2.79399290	      0.00000000	      0.00000000	     -0.63400069	      5.70419611	      7.27935833	     28.40276669	     -3.40134810	     46.71810319	    145.52388564	     89.18093138	    -18.85132416	      5.16271502	     28.17236358	      2.23333871	     25.96032905	    148.92458804	     86.95034372	    -20.04753078	     22.41958346
      5.46666667	     -1.02308237	     -0.93066304	     96.49133266	      0.26232097	      0.98287538	      0.29659663	     -2.84486134	     -1.76320022	    -14.06008471	      3.55345517	      0.06201949	     18.47297416	     14.90643093	      0.00000000	     -3.49143748	      1.85562520	      1.37947069	      0.74911153	      0.01307446	      9.44755390	     -8.94255168	      0.00000000	     -0.09555250	     -0.23310758	      0.49810517	     -0.17745055	     -0.31003307	      0.52923674	     -0.15698320	     -0.56677776	      0.52923674	     -0.10920695	     -0.56677776	      0.43584202	     -0.08873005	     -0.47535297	      0.40471045	     -0.05459870	     -0.36108363	      0.37357888	     -0.68252195	     -2.63695951	      2.77031152	      0.00000000	      0.00000000	     -0.83323382	      5.60108852	      7.91776588	     28.45750214	     -3.33673271	     46.53781302	    145.13888946	     89.18503517	    -18.87673342	      4.69907813	     28.17332934	      2.15998478	     25.95559099	    149.03580282	     87.00583850	    -20.54507296	     23.04638016
      5.48333333	     -0.95517213	     -0.99415178	     96.59815993	      0.26201934	      0.98290915	      0.29666078	     -2.64645693	     -1.75336329	    -14.76223189	      3.82327359	      0.06672871	     18.53147070	     15.52201825	      0.00000000	     -3.35416315	      1.78042711	     -0.04704805	      0.74031449	      0.01292093	      9.98852843	     -6.70003766	      0.00000000	     -0.08140684	     -0.22223590	      0.41538672	     -0.15118063	     -0.29557374	      0.44134839	     -0.13374329	     -0.54034436	      0.44134839	     -0.09303987	     -0.54034436	      0.36346338	     -0.07559439	     -0.45318344	      0.33750171	     -0.04651587	     -0.34424340	      0.31154004	     -0.58148089	     -2.51397692	      2.31025633	      0.00000000	      0.00000000	     -1.17257613	      5.43795050	      8.78419815	     28.64405024	     -3.15094988	     46.36580247	    144.47644540	     89.17687999	    -19.69958718	      4.28386696	     28.09472653	      2.09468812	     25.63959564	    149.13624323	     86.81323587	    -20.94514518	     23.54592930
      5.50000000	     -0.87919601	     -1.05330263	     96.73791382	      0.26165135	      0.98290539	      0.29689164	     -2.40960482	     -1.73619516	    -14.92981153	      4.14050336	      0.07226542	     18.53904515	     15.36794656	      0.00000000	     -3.21813476	      1.70894692	      0.24024928	      0.71540303	      0.01248614	      9.96973907	     -6.88194188	      0.00000000	     -0.07038377	     -0.21147462	      0.33046950	     -0.13070970	     -0.28126124	      0.35112384	     -0.11563349	     -0.51417938	      0.35112384	     -0.08044161	     -0.51417938	      0.28916081	     -0.06535837	     -0.43123904	      0.26850647	     -0.04021728	     -0.32757418	      0.24785212	     -0.50274421	     -2.39224316	      1.83797221	      0.00000000	      0.00000000	     -1.50652028	      5.37802210	      9.64298519	     28.79591709	     -2.89372015	     45.87474000	    143.88394902	     89.18641622	    -19.89492503	      4.80651916	     28.07030593	      2.06414680	     25.23357362	    149.19545834	     86.54773820	    -21.49284585	     23.88617355
      5.51666667	     -0.84668663	     -1.04636612	     96.69079038	      0.26160069	      0.98299484	      0.29705141	     -2.32774723	     -1.72937649	    -14.99255955	      4.23084664	      0.07384220	     18.41696359	     15.34473045	      0.00000000	     -3.17808546	      1.67516343	      0.27530905	      0.68610121	      0.01197473	     10.03040426	     -6.86419717	      0.00000000	     -0.07282028	     -0.21365020	      0.32691969	     -0.13523454	     -0.28415477	      0.34735217	     -0.11963644	     -0.51946910	      0.34735217	     -0.08322630	     -0.51946910	      0.28605473	     -0.06762091	     -0.43567549	      0.26562225	     -0.04160951	     -0.33094416	      0.24518977	     -0.52014798	     -2.41685382	      1.81822925	      0.00000000	      0.00000000	     -1.64728682	      5.42354897	      9.65566296	     28.78877921	     -2.79246732	     45.35861313	    143.49817889	     89.14193561	    -20.08143448	      4.87794654	     28.11905965	      2.13885918	     25.00774250	    149.07739884	     86.54529314	    -21.58136303	     23.82471638
      5.53333333	     -0.87388312	     -1.08746499	     96.86967522	      0.26165637	      0.98303752	      0.29706959	     -2.11219102	     -1.80613730	    -15.43267034	      4.62157481	      0.08066170	     18.50762167	     15.46356828	      0.00000000	     -3.08485935	      1.66009791	     -0.42964968	      0.68686075	      0.01198798	     10.49600855	     -5.41439336	      0.00000000	     -0.05400243	     -0.21246525	      0.25356206	     -0.10028791	     -0.28257878	      0.26940969	     -0.08872059	     -0.51658800	      0.26940969	     -0.06171937	     -0.51658800	      0.22186680	     -0.05014665	     -0.43325913	      0.20601917	     -0.03085699	     -0.32910867	      0.19017155	     -0.38573394	     -2.40344937	      1.41023611	      0.00000000	      0.00000000	     -2.36033309	      5.78818087	     11.25560177	     28.78154651	     -2.42368701	     45.20871628	    143.01249504	     89.15703915	    -20.22710127	      5.45250514	     28.05278395	      2.02562155	     24.53454685	    149.18837346	     86.51315182	    -22.44140598	     24.26401220
